<?xml version="1.0" encoding="utf-8"?>
<!-- Generator: Adobe Illustrator 24.3.0, SVG Export Plug-In . SVG Version: 6.00 Build 0)  -->
<svg version="1.1" id="Layer_1" xmlns="http://www.w3.org/2000/svg" xmlns:xlink="http://www.w3.org/1999/xlink" x="0px" y="0px"
	 viewBox="0 0 472.6 472.6" style="enable-background:new 0 0 472.6 472.6;" xml:space="preserve">
<style type="text/css">
	.st0{fill-rule:evenodd;clip-rule:evenodd;fill:#24AFA8;}
</style>
<polygon class="st0" points="177.8,58.5 236.3,0 295.1,58.7 266,87.8 236.5,58.4 207.1,87.8 "/>
<polygon class="st0" points="0,236.3 148.3,88 236.6,176.3 324.6,88.3 472.6,236.3 443.5,265.5 326,148 237.2,236.9 148.1,147.8 
	29.8,266.1 "/>
<polygon class="st0" points="413.9,295 384.5,324.5 384.5,324.5 325.6,265.7 236.9,354.4 147.9,265.4 88.5,324.8 58.8,295.1 
	147.9,206 236.4,294.5 324.9,206 "/>
<polygon class="st0" points="355.3,353.7 236.3,472.6 118.2,354.5 148.3,324.3 236.8,412.8 325.6,324 "/>
</svg>
